PathFileType	4	(X/Y/Z)	C:\Users\dbl\Desktop\20210112(1)\20210112\bx_y_10_502.trc
DataRate	CameraRate	NumFrames	NumMarkers	Units	OrigDataRate	OrigDataStartFrame	OrigNumFrames
50.00	50.00	       4	43	mm	50.00	125	       499
Frame#	Time	Top.Head			R.Acromium			L.Acromium			Sternum			R.ASIS			L.ASIS			V.Sacral			R.Thigh.Upper			R.Thigh.Front			R.Thigh.Rear			R.Knee.Lat			R.Knee.Med			R.Shank.Upper			R.Shank.Front			R.Shank.Rear			R.Ankle.Lat			R.Midfoot.Lat			R.Toe.Lat			R.Toe.Tip			R.Toe.Med			R.Ankle.Med			R.Midfoot.Sup			R.Heel			L.Thigh.Upper			L.Thigh.Front			L.Thigh.Rear			L.Knee.Lat			L.Knee.Med			L.Shank.Upper			L.Shank.Front			L.Shank.Rear			L.Ankle.Lat			L.Midfoot.Lat			L.Toe.Lat			L.Toe.Tip			L.Toe.Med			L.Ankle.Med			L.Midfoot.Sup			L.Heel			origin1 front left			origin2 front right			origin 3 back right			origin 4 back leftt			
		X1	Y1	Z1	X2	Y2	Z2	X3	Y3	Z3	X4	Y4	Z4	X5	Y5	Z5	X6	Y6	Z6	X7	Y7	Z7	X8	Y8	Z8	X9	Y9	Z9	X10	Y10	Z10	X11	Y11	Z11	X12	Y12	Z12	X13	Y13	Z13	X14	Y14	Z14	X15	Y15	Z15	X16	Y16	Z16	X17	Y17	Z17	X18	Y18	Z18	X19	Y19	Z19	X20	Y20	Z20	X21	Y21	Z21	X22	Y22	Z22	X23	Y23	Z23	X24	Y24	Z24	X25	Y25	Z25	X26	Y26	Z26	X27	Y27	Z27	X28	Y28	Z28	X29	Y29	Z29	X30	Y30	Z30	X31	Y31	Z31	X32	Y32	Z32	X33	Y33	Z33	X34	Y34	Z34	X35	Y35	Z35	X36	Y36	Z36	X37	Y37	Z37	X38	Y38	Z38	X39	Y39	Z39	X40	Y40	Z40	X41	Y41	Z41	X42	Y42	Z42	X43	Y43	Z43	

125	2.480	-161.04034	101.09695	1284.84741	-364.60638	-53.04813	1111.34375	-371.37341	259.48254	1111.09094	-435.26843	102.32274	1106.92163	-814.04248	-12.08561	960.33142	-815.98376	191.75607	977.19464	-951.61926	86.25200	1096.93518	-860.14038	-78.06477	853.78210	-780.96606	-15.34413	795.02087	-873.00311	-65.60065	698.29059	-840.54077	-37.53520	602.85498	-815.99072	74.78904	563.25922	-837.55701	-33.30052	553.68127	-776.06927	11.28889	522.28772	-858.62909	-44.68583	466.27396	-775.35480	-13.83599	200.32719	-664.64246	-69.57575	159.66246	-622.82056	-80.75712	156.39220	-562.54529	-36.18704	163.35974	-605.17731	19.25731	167.86041	-730.35510	69.37012	221.99506	-678.07971	51.51051	164.45349	-798.77850	49.02731	172.29207	-850.60229	281.53873	858.53656	-785.15912	211.50922	798.68213	-876.03027	285.95691	725.85107	-875.73694	263.19934	615.30304	-813.14221	145.32915	562.51099	-848.62537	248.21815	558.55292	-784.20728	206.85844	532.42798	-866.78357	260.94009	479.05341	-777.52917	227.85071	199.82471	-665.91370	299.52078	159.59309	-627.73065	306.44028	161.38731	-562.18323	257.69122	164.75500	-597.36743	222.11768	173.36444	-722.98932	158.15184	222.93156	-677.93231	176.33705	163.02144	-800.47382	177.81308	180.60287	-528.04584	304.05881	146.33557	-518.03583	-72.32792	142.75719	-876.07135	-78.52269	141.61601	-882.46277	296.11621	144.69931	
126	2.500	-163.38831	101.45754	1286.08569	-365.24460	-52.64896	1111.12280	-372.13190	259.60825	1110.48718	-435.77924	102.26816	1106.38867	-815.16669	-12.17179	959.96198	-817.12134	191.64424	976.59454	-952.69727	86.26931	1096.65039	-861.03235	-77.94884	853.57837	-781.80811	-15.26029	794.88458	-873.80774	-65.64151	698.14093	-841.14008	-37.46410	602.70074	-816.72168	74.95055	563.13910	-838.01855	-33.29824	553.57458	-776.48547	11.30728	522.31293	-858.96771	-44.63483	466.09103	-775.39093	-13.87829	200.31354	-664.61249	-69.54315	159.65573	-622.79181	-80.74496	156.40504	-562.53809	-36.18247	163.35536	-605.17834	19.29325	167.88817	-730.39789	69.41419	222.02086	-678.09875	51.46988	164.43352	-798.76086	48.96860	172.25139	-851.61566	281.57449	858.27911	-786.08789	211.53934	798.41156	-876.86182	286.00729	725.64703	-876.38074	263.07651	615.10541	-813.79816	145.44650	562.41907	-849.24103	248.21065	558.46960	-784.77545	206.83763	532.32208	-867.23853	260.93130	478.84958	-777.58917	227.84700	199.79451	-665.92938	299.50375	159.58076	-627.73468	306.45432	161.35704	-562.22302	257.70618	164.75391	-597.38940	222.11368	173.31279	-722.99829	158.17577	222.97324	-677.96820	176.29738	163.07254	-800.51563	177.79253	180.60100	-528.04938	304.04288	146.37489	-518.01721	-72.35978	142.82510	-876.08679	-78.52610	141.62390	-882.45422	296.09396	144.68953	
127	2.520	-166.01520	101.91677	1287.43384	-366.17172	-52.25910	1110.85803	-372.85117	259.72592	1109.94995	-436.35248	102.20960	1105.98022	-816.24634	-12.25400	959.64612	-818.20764	191.54887	976.03821	-953.85571	86.29564	1096.35999	-862.03748	-77.88999	853.45477	-782.70892	-15.09272	794.78998	-874.58472	-65.67323	697.94812	-841.74658	-37.39496	602.49677	-817.45630	75.05856	562.99243	-838.47412	-33.31728	553.47083	-776.86346	11.35981	522.31268	-859.31555	-44.62731	465.91681	-775.40106	-13.90740	200.29153	-664.59485	-69.52189	159.66226	-622.78229	-80.75288	156.43808	-562.55383	-36.16533	163.36513	-605.17090	19.31503	167.89537	-730.49402	69.42014	222.01678	-678.14008	51.45383	164.41425	-798.76263	48.93786	172.27005	-852.72089	281.56387	857.93390	-787.07141	211.65392	798.17670	-877.76172	286.08221	725.43219	-877.00854	262.91589	614.90253	-814.40845	145.44478	562.27246	-849.97803	248.19835	558.41467	-785.39807	206.81371	532.23291	-867.72699	260.93817	478.62289	-777.64008	227.82285	199.70963	-665.92676	299.48862	159.56569	-627.72949	306.48682	161.37482	-562.23682	257.73373	164.73799	-597.43372	222.12167	173.20958	-723.00861	158.19371	222.99516	-678.01733	176.23380	163.14964	-800.58813	177.72398	180.62791	-528.04443	304.04251	146.40872	-518.02057	-72.36984	142.92088	-876.09631	-78.54581	141.62326	-882.44318	296.05911	144.66396	
128	2.540	-168.85834	102.42832	1288.85718	-367.35800	-51.90543	1110.58081	-373.56281	259.87439	1109.46460	-436.98792	102.14706	1105.69629	-817.28070	-12.33231	959.38458	-819.24152	191.46991	975.52661	-955.10254	86.33560	1096.07227	-863.14142	-77.89873	853.39520	-783.69763	-14.88797	794.74475	-875.36060	-65.66788	697.73395	-842.38745	-37.34265	602.29352	-818.18176	75.09990	562.81592	-838.93317	-33.31096	553.32806	-777.29517	11.45610	522.28790	-859.69653	-44.63116	465.74835	-775.36743	-13.94033	200.25325	-664.58258	-69.51049	159.68643	-622.78131	-80.76447	156.45186	-562.58704	-36.13430	163.37558	-605.17572	19.33808	167.88220	-730.60071	69.40884	222.00192	-678.18396	51.45879	164.40329	-798.77502	48.93694	172.32323	-853.89148	281.51154	857.54327	-788.08099	211.71527	797.90613	-878.69714	286.14905	725.14044	-877.61951	262.71985	614.69513	-815.05756	145.31113	562.03790	-850.78387	248.16373	558.31561	-786.08234	206.80566	532.12036	-868.31641	260.97128	478.38864	-777.66724	227.79118	199.59871	-665.89880	299.48108	159.55122	-627.71643	306.51468	161.42667	-562.23047	257.76807	164.70871	-597.48901	222.12817	173.08618	-723.01648	158.21043	222.99171	-678.06714	176.15869	163.24113	-800.69269	177.60786	180.66254	-528.02637	304.04300	146.41994	-518.04755	-72.36376	143.00348	-876.10791	-78.57682	141.63666	-882.45001	296.03394	144.62981	
